# Blender 4.0.2
# www.blender.org
o UFO_rim
v 33.951000 19.842699 -0.373200
v 33.332401 19.842699 -6.653600
v 31.399500 19.842699 -13.025700
v 28.260599 19.842699 -18.898199
v 24.036301 19.842699 -24.045601
v 18.888901 19.842699 -28.269899
v 13.016400 19.842699 -31.408800
v 6.644300 19.842699 -33.341702
v 0.363900 19.842699 -33.960300
v 0.363900 19.842699 33.906502
v 6.644300 19.842699 33.287998
v 13.016400 19.842699 31.355000
v 18.889000 19.842699 28.216101
v 24.036301 19.842699 23.991800
v 28.260599 19.842699 18.844400
v 31.399500 19.842699 12.971900
v 33.332401 19.842699 6.599800
v 33.951000 19.842699 0.319400
v 33.951000 18.133400 -0.373200
v 33.332401 18.133400 -6.653600
v 31.399500 18.133400 -13.025700
v 28.260599 18.133400 -18.898199
v 24.036301 18.133400 -24.045601
v 18.888901 18.133400 -28.269899
v 13.016400 18.133400 -31.408800
v 6.644300 18.133400 -33.341702
v 0.363900 18.133400 -33.960300
v 0.363900 18.133400 33.906502
v 6.644300 18.133400 33.287998
v 13.016400 18.133400 31.355000
v 18.889000 18.133400 28.216101
v 24.036301 18.133400 23.991800
v 28.260599 18.133400 18.844400
v 31.399500 18.133400 12.971900
v 33.332401 18.133400 6.599800
v 33.951000 18.133400 0.319400
v -33.915798 19.842699 -0.373200
v -33.297298 19.842699 -6.653600
v -31.364300 19.842699 -13.025700
v -28.225401 19.842699 -18.898199
v -24.001101 19.842699 -24.045601
v -18.853800 19.842699 -28.269899
v -12.981200 19.842699 -31.408800
v -6.609100 19.842699 -33.341801
v -0.328700 19.842699 -33.960300
v -0.328800 19.842699 33.906502
v -6.609200 19.842699 33.287998
v -12.981300 19.842699 31.355000
v -18.853800 19.842699 28.216101
v -24.001101 19.842699 23.991699
v -28.225401 19.842699 18.844400
v -31.364300 19.842699 12.971900
v -33.297298 19.842699 6.599800
v -33.915798 19.842699 0.319400
v -33.915798 18.133400 -0.373200
v -33.297298 18.133400 -6.653600
v -31.364300 18.133400 -13.025700
v -28.225401 18.133400 -18.898199
v -24.001101 18.133400 -24.045601
v -18.853800 18.133400 -28.269899
v -12.981200 18.133400 -31.408800
v -6.609100 18.133400 -33.341801
v -0.328700 18.133400 -33.960300
v -0.328700 18.133400 33.906502
v -6.609200 18.133400 33.287998
v -12.981300 18.133400 31.355000
v -18.853800 18.133400 28.216101
v -24.001101 18.133400 23.991699
v -28.225401 18.133400 18.844400
v -31.364300 18.133400 12.971900
v -33.297298 18.133400 6.599800
v -33.915798 18.133400 0.319400
v 33.548698 19.571199 0.319400
v 33.548698 19.571199 -0.373200
v 33.548698 18.404800 -0.373200
v 33.548698 18.404900 0.319400
v 0.363900 19.571199 -33.557999
v -0.328700 19.571199 -33.557999
v -0.328800 19.571199 33.504299
v 0.363900 19.571199 33.504299
v 0.363900 18.404800 33.504299
v -0.328700 18.404800 33.504299
v -33.513599 19.571199 -0.373200
v -33.513599 19.571199 0.319400
v -33.513599 18.404900 0.319400
v -33.513500 18.404800 -0.373200
v -0.328700 18.404800 -33.557999
v 0.363900 18.404800 -33.557999
v 0.363900 19.842699 33.906502
v 6.644300 19.842699 33.287998
v 13.016400 19.842699 31.355000
v 18.889000 19.842699 28.216101
v 24.036301 19.842699 23.991800
v 28.260599 19.842699 18.844400
v 31.399500 19.842699 12.971900
v 33.332401 19.842699 6.599800
v 33.951000 19.842699 0.319400
v 0.363900 18.133400 33.906502
v 6.644300 18.133400 33.287998
v 13.016400 18.133400 31.355000
v 18.889000 18.133400 28.216101
v 24.036301 18.133400 23.991800
v 28.260599 18.133400 18.844400
v 31.399500 18.133400 12.971900
v 33.332401 18.133400 6.599800
v 33.951000 18.133400 0.319400
v -0.328800 19.842699 33.906502
v -6.609200 19.842699 33.287998
v -12.981300 19.842699 31.355000
v -18.853800 19.842699 28.216101
v -24.001101 19.842699 23.991699
v -28.225401 19.842699 18.844400
v -31.364300 19.842699 12.971900
v -33.297298 19.842699 6.599800
v -33.915798 19.842699 0.319400
v -0.328700 18.133400 33.906502
v -6.609200 18.133400 33.287998
v -12.981300 18.133400 31.355000
v -18.853800 18.133400 28.216101
v -24.001101 18.133400 23.991699
v -28.225401 18.133400 18.844400
v -31.364300 18.133400 12.971900
v -33.297298 18.133400 6.599800
v -33.915798 18.133400 0.319400
v -0.328800 19.571199 33.504299
v 0.363900 19.571199 33.504299
v 0.363900 18.404800 33.504299
v -0.328700 18.404800 33.504299
vn 0.9239 -0.0000 -0.3827
vn 0.9808 -0.0000 -0.1951
vn 0.8315 -0.0000 -0.5556
vn 0.3827 -0.0000 -0.9239
vn 0.5556 -0.0000 -0.8315
vn 0.1951 -0.0000 -0.9808
vn -0.4659 -0.0000 -0.8848
vn -0.4660 -0.0000 -0.8848
vn 0.1951 -0.0000 0.9808
vn -0.4659 -0.0000 0.8848
vn -0.4660 -0.0000 0.8848
vn 0.5556 -0.0000 0.8315
vn 0.3827 -0.0000 0.9239
vn 0.8848 -0.0000 0.4659
vn 0.8848 -0.0000 0.4660
vn 0.7071 -0.0000 -0.7071
vn 0.7071 -0.0000 0.7071
vn 0.8315 -0.0000 0.5556
vn 0.9239 -0.0000 0.3827
vn 0.9808 -0.0000 0.1951
vn 0.8848 -0.0000 -0.4659
vn -0.9239 -0.0000 -0.3827
vn -0.9808 -0.0000 -0.1951
vn -0.8315 -0.0000 -0.5556
vn -0.3827 -0.0000 -0.9239
vn -0.5556 -0.0000 -0.8315
vn -0.1951 -0.0000 -0.9808
vn 0.4659 -0.0000 -0.8848
vn 0.4660 -0.0000 -0.8848
vn -0.1951 -0.0000 0.9808
vn 0.4660 -0.0000 0.8848
vn 0.4659 -0.0000 0.8849
vn -0.5556 -0.0000 0.8315
vn -0.3827 -0.0000 0.9239
vn -0.8848 -0.0000 0.4660
vn -0.8848 -0.0000 0.4659
vn -0.7071 -0.0000 -0.7071
vn -0.7071 -0.0000 0.7071
vn -0.8315 -0.0000 0.5556
vn -0.9239 -0.0000 0.3827
vn -0.9808 -0.0000 0.1951
vn -0.8848 -0.0000 -0.4659
vn 0.5874 -0.0000 0.8093
vn 0.5874 -0.0000 -0.8093
vn 0.5873 -0.0000 0.8093
vn -0.8093 -0.0000 -0.5874
vn 0.8093 -0.0000 -0.5874
vn 0.8093 0.0001 0.5874
vn -0.8093 -0.0000 0.5874
vn -0.8093 -0.0000 0.5873
vn 0.8094 0.0001 0.5873
vn -0.5874 -0.0000 0.8093
vn -0.5873 -0.0000 -0.8093
vn -0.5873 -0.0000 -0.8094
vn -0.5873 -0.0000 0.8093
vn 0.0980 -0.0000 0.9952
vn 0.9952 -0.0000 0.0980
vn -0.0980 -0.0000 0.9952
vn -0.9952 -0.0000 0.0980
vn -0.0000 -0.0000 1.0000
vt 0.435900 0.191400
vt 0.466400 0.191400
vt 0.466400 0.222200
vt 0.435900 0.222200
vt 0.405300 0.191400
vt 0.405300 0.222200
vt 0.313700 0.191400
vt 0.344200 0.191400
vt 0.344200 0.222200
vt 0.313700 0.222200
vt 0.283200 0.191400
vt 0.283200 0.222200
vt 0.254200 0.191400
vt 0.254200 0.222200
vt 0.710700 0.191400
vt 0.739700 0.191400
vt 0.739700 0.222200
vt 0.710700 0.222200
vt 0.649700 0.191400
vt 0.680200 0.191400
vt 0.680200 0.222200
vt 0.649700 0.222200
vt 0.495400 0.191400
vt 0.495400 0.222200
vt 0.374800 0.191400
vt 0.374800 0.222200
vt 0.619100 0.191400
vt 0.619100 0.222200
vt 0.588600 0.191400
vt 0.588600 0.222200
vt 0.558000 0.191400
vt 0.558000 0.222200
vt 0.527500 0.191400
vt 0.527500 0.222200
vt 0.498500 0.191400
vt 0.498500 0.222200
vt 0.069400 0.191400
vt 0.069400 0.222200
vt 0.038800 0.222200
vt 0.038800 0.191400
vt 0.099900 0.191400
vt 0.099900 0.222200
vt 0.191500 0.191400
vt 0.191500 0.222200
vt 0.161000 0.222200
vt 0.161000 0.191400
vt 0.222100 0.191400
vt 0.222100 0.222200
vt 0.251000 0.191400
vt 0.251000 0.222200
vt 0.771800 0.191400
vt 0.771800 0.222200
vt 0.742900 0.222200
vt 0.742900 0.191400
vt 0.832900 0.191400
vt 0.832900 0.222200
vt 0.802400 0.222200
vt 0.802400 0.191400
vt 0.009900 0.222200
vt 0.009900 0.191400
vt 0.130400 0.191400
vt 0.130400 0.222200
vt 0.863500 0.191400
vt 0.863500 0.222200
vt 0.894000 0.191400
vt 0.894000 0.222200
vt 0.924500 0.191400
vt 0.924500 0.222200
vt 0.955100 0.191400
vt 0.955100 0.222200
vt 0.984000 0.191400
vt 0.984000 0.222200
vt 0.495300 0.199000
vt 0.498600 0.199000
vt 0.498600 0.214600
vt 0.495300 0.214600
vt 0.254200 0.214600
vt 0.251000 0.214600
vt 0.251000 0.199000
vt 0.254200 0.199000
vt 0.742900 0.214600
vt 0.739700 0.214600
vt 0.739700 0.199000
vt 0.742900 0.199000
vt 0.987200 0.214600
vt 0.984000 0.214600
vt 0.984000 0.199000
vt 0.987200 0.199000
vt 0.009900 0.214600
vt 0.009900 0.199000
s 1
f 3/1/1 2/2/2 20/3/2 21/4/1
f 4/5/3 3/1/1 21/4/1 22/6/3
f 7/7/4 6/8/5 24/9/5 25/10/4
f 8/11/6 7/7/4 25/10/4 26/12/6
f 9/13/7 8/11/6 26/12/6 27/14/8
f 11/15/9 10/16/10 28/17/11 29/18/9
f 13/19/12 12/20/13 30/21/13 31/22/12
f 2/2/2 1/23/14 19/24/15 20/3/2
f 5/25/16 4/5/3 22/6/3 23/26/16
f 6/8/5 5/25/16 23/26/16 24/9/5
f 12/20/13 11/15/9 29/18/9 30/21/13
f 14/27/17 13/19/12 31/22/12 32/28/17
f 15/29/18 14/27/17 32/28/17 33/30/18
f 16/31/19 15/29/18 33/30/18 34/32/19
f 17/33/20 16/31/19 34/32/19 35/34/20
f 18/35/21 17/33/20 35/34/20 36/36/21
f 39/37/22 57/38/22 56/39/23 38/40/23
f 40/41/24 58/42/24 57/38/22 39/37/22
f 43/43/25 61/44/25 60/45/26 42/46/26
f 44/47/27 62/48/27 61/44/25 43/43/25
f 45/49/28 63/50/29 62/48/27 44/47/27
f 47/51/30 65/52/30 64/53/31 46/54/32
f 49/55/33 67/56/33 66/57/34 48/58/34
f 38/40/23 56/39/23 55/59/35 37/60/36
f 41/61/37 59/62/37 58/42/24 40/41/24
f 42/46/26 60/45/26 59/62/37 41/61/37
f 48/58/34 66/57/34 65/52/30 47/51/30
f 50/63/38 68/64/38 67/56/33 49/55/33
f 51/65/39 69/66/39 68/64/38 50/63/38
f 52/67/40 70/68/40 69/66/39 51/65/39
f 53/69/41 71/70/41 70/68/40 52/67/40
f 54/71/42 72/72/42 71/70/41 53/69/41
f 74/73/43 73/74/44 76/75/44 75/76/45
f 88/77/46 87/78/47 78/79/47 77/80/46
f 82/81/48 81/82/49 80/83/50 79/84/51
f 86/85/52 85/86/53 84/87/54 83/88/55
f 18/35/21 36/36/21 76/75/44 73/74/44
f 19/24/15 1/23/14 74/73/43 75/76/45
f 9/13/7 27/14/8 88/77/46 77/80/46
f 63/50/29 45/49/28 78/79/47 87/78/47
f 46/54/32 64/53/31 82/81/48 79/84/51
f 28/17/11 10/16/10 80/83/50 81/82/49
f 37/60/36 55/59/35 86/89/52 83/90/55
f 72/72/42 54/71/42 84/87/54 85/86/53
f 90/15/9 89/16/56 98/17/56 99/18/9
f 92/19/12 91/20/13 100/21/13 101/22/12
f 91/20/13 90/15/9 99/18/9 100/21/13
f 93/27/17 92/19/12 101/22/12 102/28/17
f 94/29/18 93/27/17 102/28/17 103/30/18
f 95/31/19 94/29/18 103/30/18 104/32/19
f 96/33/20 95/31/19 104/32/19 105/34/20
f 97/35/57 96/33/20 105/34/20 106/36/57
f 108/51/30 117/52/30 116/53/58 107/54/58
f 110/55/33 119/56/33 118/57/34 109/58/34
f 109/58/34 118/57/34 117/52/30 108/51/30
f 111/63/38 120/64/38 119/56/33 110/55/33
f 112/65/39 121/66/39 120/64/38 111/63/38
f 113/67/40 122/68/40 121/66/39 112/65/39
f 114/69/41 123/70/41 122/68/40 113/67/40
f 115/71/59 124/72/59 123/70/41 114/69/41
f 128/81/60 127/82/60 126/83/60 125/84/60
